# xmcd CD database file
#
# Track frame offsets:
#	150
#	34466
#	62200
#	97043
#	119813
#	151673
#	185540
#	233912
#
# Disc length: 3614 seconds
#
# Revision: 0
# Processed by: cddbd v1.5.2PL0 Copyright (c) Steve Scherf et al.
# Submitted via: CDex 1.70beta2
#
DISCID=6f0e1c08
DTITLE=Ricardo Gallo Cuarteto - Los cerros testigos
DYEAR=2005
DGENRE=Jazz
TTITLE0=El trasnochado
TTITLE1=Los cerros testigos
TTITLE2=La distritofobia
TTITLE3=Bambuco de la orilla
TTITLE4=Corro atrapao
TTITLE5=Lagunas
TTITLE6=Chontaduro free-to
TTITLE7=El trasnochado (alt.)
EXTD=YEAR: 2005
EXTT0=
EXTT1=
EXTT2=
EXTT3=
EXTT4=
EXTT5=
EXTT6=
EXTT7=
PLAYORDER=
